<svg xmlns="http://www.w3.org/2000/svg" version="1.1" xmlns:xlink="http://www.w3.org/1999/xlink" xmlns:svgjs="http://svgjs.dev/svgjs" width="2000" height="1090" viewBox="0 0 2000 1090"><g transform="matrix(1,0,0,1,-1.207571753382581,0.15033381190892214)"><svg viewBox="0 0 396 216" data-background-color="#6936f5" preserveAspectRatio="xMidYMid meet" height="1090" width="2000" xmlns="http://www.w3.org/2000/svg" xmlns:xlink="http://www.w3.org/1999/xlink"><g id="tight-bounds" transform="matrix(1,0,0,1,0.24016961667672376,-0.02979092052507326)"><svg viewBox="0 0 395.52 216.05958184105015" height="216.05958184105015" width="395.52"><g><svg viewBox="0 0 395.52 216.05958184105015" height="216.05958184105015" width="395.52"><g transform="matrix(1,0,0,1,0,137.1099032809859)"><svg viewBox="0 0 395.52 78.94967856006426" height="78.94967856006426" width="395.52"><g id="textblocktransform"><svg viewBox="0 0 395.52 78.94967856006426" height="78.94967856006426" width="395.52" id="textblock"><g><svg viewBox="0 0 395.52 78.94967856006426" height="78.94967856006426" width="395.52"><g transform="matrix(1,0,0,1,0,0)"><svg width="395.52" viewBox="-0.1807584650376583 -28.01868376792178 218.97858694596428 43.710273187978615" height="78.94967856006426" data-palette-color="#ffffff"><path d="M14.17 15.534v0c-1.738 0.314-3.42 0.158-5.044-0.47v0c-1.619-0.635-3.006-1.618-4.161-2.947-1.148-1.33-1.884-2.888-2.206-4.672v0l-2.769-15.535c-0.329-1.817-0.184-3.53 0.433-5.139v0c0.594-1.625 1.545-3.013 2.855-4.164 1.311-1.145 2.825-1.873 4.544-2.183v0c1.784-0.323 3.467-0.176 5.048 0.438v0c1.589 0.621 2.953 1.59 4.093 2.909 1.133 1.319 1.862 2.878 2.187 4.675v0l2.857 15.519c0.323 1.784 0.188 3.496-0.403 5.134v0c-0.609 1.655-1.557 3.062-2.844 4.223-1.289 1.154-2.818 1.892-4.59 2.212zM13.101 9.62v0c0.991-0.179 1.781-0.735 2.371-1.668 0.582-0.939 0.783-1.91 0.601-2.914v0l-2.857-15.519c-0.196-1.082-0.702-1.936-1.52-2.561-0.824-0.623-1.761-0.84-2.81-0.65v0c-1.004 0.181-1.797 0.701-2.381 1.559-0.589 0.865-0.782 1.855-0.581 2.97v0l2.808 15.529c0.193 1.069 0.72 1.923 1.58 2.559 0.855 0.645 1.784 0.876 2.789 0.695zM32.482 12.099v0l-5.537 0.77c-0.158 0.022-0.249-0.046-0.27-0.205v0l-4.609-33.888c-0.018-0.132 0.035-0.207 0.161-0.224v0l9.489-1.319c3.018-0.419 5.533 0.17 7.545 1.768 2.012 1.592 3.237 3.969 3.677 7.132v0c0.321 2.311 0.142 4.389-0.538 6.233v0c-0.694 1.833-1.713 3.317-3.056 4.453-1.35 1.137-2.89 1.825-4.619 2.066v0l-3.754 0.522 1.726 12.42c0.022 0.158-0.05 0.249-0.215 0.272zM32.529-16.913v0l-3.747 0.571 1.359 9.776 3.754-0.522c1.043-0.145 1.878-0.773 2.504-1.882 0.633-1.111 0.838-2.469 0.615-4.074v0c-0.179-1.288-0.672-2.296-1.48-3.025-0.801-0.73-1.803-1.011-3.005-0.844zM59.109 8.958v0l-5.583 0.548c-0.146 0.014-0.227-0.058-0.243-0.218v0l-2.771-28.254-6.439 0.631c-0.159 0.016-0.247-0.056-0.262-0.215v0l-0.494-5.548c-0.013-0.133 0.044-0.205 0.169-0.218v0l18.82-1.846c0.179-0.018 0.275 0.04 0.288 0.173v0l0.544 5.543c0.016 0.159-0.043 0.245-0.176 0.259v0l-6.499 0.637 2.811 28.251c0.016 0.159-0.04 0.245-0.165 0.257zM73.81 7.706v0l-5.624 0.418c-0.16 0.012-0.245-0.062-0.258-0.222v0l-2.482-34.109c-0.01-0.133 0.048-0.204 0.174-0.214v0l5.575-0.414c0.133-0.01 0.204 0.052 0.214 0.185v0l2.583 34.102c0.012 0.16-0.049 0.244-0.182 0.254zM83.623 7.27v0l-5.635 0.23c-0.127 0.005-0.193-0.072-0.2-0.232v0l-1.292-34.176c-0.005-0.133 0.055-0.202 0.182-0.208v0l6.074-0.247c0.127-0.005 0.243 0.057 0.348 0.186v0l4.804 6.37 4.249-6.739c0.094-0.137 0.215-0.209 0.361-0.215v0l6.095-0.248c0.147-0.006 0.223 0.058 0.228 0.191v0l1.483 34.168c0.007 0.16-0.054 0.242-0.18 0.247v0l-5.636 0.23c-0.127 0.005-0.193-0.072-0.199-0.232v0l-1.084-25.377-4.918 7.786-5.474-7.363 0.984 25.381c0.007 0.16-0.057 0.243-0.19 0.248zM112.868 7.152v0c-1.747-0.008-3.365-0.468-4.854-1.381v0c-1.489-0.92-2.671-2.145-3.544-3.675-0.873-1.537-1.306-3.212-1.298-5.026v0l0.198-24.89c0.001-0.133 0.068-0.2 0.2-0.199v0l5.59 0.025c0.127 0.001 0.19 0.067 0.19 0.2v0l-0.108 24.89c-0.005 1.12 0.348 2.072 1.057 2.855 0.71 0.79 1.575 1.187 2.595 1.191v0c1.073 0.005 1.968-0.385 2.685-1.168 0.71-0.777 1.067-1.725 1.073-2.846v0l0.107-24.889c0.001-0.133 0.068-0.2 0.201-0.2v0l5.59 0.025c0.127 0.001 0.19 0.067 0.189 0.2v0l-0.008 24.891c-0.008 1.827-0.452 3.508-1.331 5.044v0c-0.9 1.523-2.089 2.731-3.566 3.625-1.477 0.894-3.132 1.336-4.966 1.328zM131.67 7.135v0l-5.633-0.27c-0.127-0.006-0.186-0.089-0.179-0.249v0l1.739-34.156c0.006-0.133 0.073-0.197 0.199-0.19v0l6.073 0.291c0.127 0.006 0.237 0.078 0.33 0.216v0l4.221 6.77 4.829-6.336c0.106-0.128 0.233-0.189 0.379-0.182v0l6.093 0.292c0.146 0.007 0.217 0.077 0.21 0.21v0l-1.549 34.165c-0.008 0.16-0.075 0.237-0.201 0.231v0l-5.633-0.27c-0.127-0.006-0.186-0.089-0.179-0.249v0l1.167-25.373-5.587 7.321-4.801-7.819-1.267 25.368c-0.008 0.16-0.078 0.237-0.211 0.23zM167.997 9.734v0l-16.024-1.45c-0.126-0.011-0.182-0.097-0.168-0.256v0l3.132-34.056c0.012-0.133 0.081-0.193 0.207-0.182v0l15.925 1.441c0.133 0.012 0.192 0.101 0.177 0.267v0l-0.501 5.537c-0.012 0.133-0.084 0.193-0.218 0.181v0l-10.158-0.919-0.701 7.748 10.158 0.92c0.133 0.012 0.193 0.081 0.182 0.207v0l-0.458 5.621c-0.011 0.126-0.084 0.183-0.216 0.172v0l-10.209-0.924-0.785 8.674 10.209 0.924c0.133 0.012 0.192 0.098 0.177 0.257v0l-0.512 5.667c-0.011 0.126-0.084 0.183-0.217 0.171zM177.662 10.996v0l-5.591-0.736c-0.126-0.017-0.178-0.104-0.157-0.263v0l4.565-33.894c0.017-0.132 0.089-0.19 0.215-0.174v0l9.974 1.314c1.785 0.235 3.366 0.887 4.745 1.957v0c1.38 1.063 2.419 2.383 3.119 3.961 0.7 1.578 0.928 3.293 0.684 5.144v0c-0.158 1.203-0.487 2.269-0.986 3.198v0c-0.5 0.936-1.039 1.709-1.617 2.319-0.578 0.61-1.089 1.047-1.534 1.311v0c1.524 2.211 2.11 4.652 1.759 7.322v0l-1.284 10.129c-0.021 0.159-0.114 0.227-0.279 0.205v0l-5.582-0.735c-0.132-0.017-0.192-0.076-0.179-0.175v0l1.345-10.211c0.157-1.19-0.124-2.272-0.843-3.248-0.725-0.976-1.696-1.545-2.912-1.705v0l-3.252-0.429-1.96 14.498c-0.021 0.159-0.097 0.229-0.23 0.212zM185.889-16.848v0l-4.233-0.557-1.023 7.763 4.234 0.557c1.011 0.133 1.967-0.128 2.866-0.782 0.892-0.649 1.41-1.519 1.554-2.609v0c0.138-1.044-0.13-2.001-0.802-2.87-0.667-0.861-1.532-1.362-2.596-1.502zM200.658 14.424v0l-5.507-0.965c-0.158-0.028-0.223-0.12-0.195-0.277v0l5.999-33.67c0.023-0.131 0.097-0.186 0.222-0.165v0l9.436 1.653c3.001 0.526 5.214 1.857 6.641 3.996 1.427 2.131 1.865 4.77 1.314 7.915v0c-0.403 2.298-1.21 4.221-2.422 5.769v0c-1.223 1.532-2.647 2.633-4.274 3.302-1.633 0.668-3.31 0.852-5.03 0.55v0l-3.733-0.653-2.164 12.352c-0.028 0.158-0.123 0.222-0.287 0.193zM209.594-13.178v0l-3.742-0.605-1.703 9.722 3.733 0.654c1.038 0.182 2.025-0.16 2.961-1.025 0.943-0.864 1.554-2.093 1.834-3.689v0c0.224-1.281 0.064-2.392-0.482-3.333-0.539-0.94-1.406-1.515-2.601-1.724z" opacity="1" transform="matrix(1,0,0,1,0,0)" fill="#ffffff" class="wordmark-text-0" data-fill-palette-color="primary" id="text-0"></path></svg></g></svg></g></svg></g></svg></g><g transform="matrix(1,0,0,1,156.81778278269462,0)"><svg viewBox="0 0 81.88443443461072 113.6891161200637" height="113.6891161200637" width="81.88443443461072"><g><svg xmlns="http://www.w3.org/2000/svg" xmlns:xlink="http://www.w3.org/1999/xlink" version="1.1" x="0" y="0" viewBox="11.799999999999997 9.3 81.10000000000001 112.60000000000001" enable-background="new 0 0 108.3 129.2" xml:space="preserve" height="113.6891161200637" width="81.88443443461072" class="icon-icon-0" data-fill-palette-color="accent" id="icon-0"><g fill="#ffffff" data-fill-palette-color="accent"><g fill="#ffffff" data-fill-palette-color="accent"><g fill="#ffffff" data-fill-palette-color="accent"><g fill="#ffffff" data-fill-palette-color="accent"><path fill="#ffffff" d="M71 121.4c-4 0-7.2-1.5-8.9-2.9l-0.3-0.3L50.2 106l3.8-3.6 11.4 12.1c0.9 0.6 6.3 4 12.9-1 2-1.5 3.1-3.2 3.3-5 0.3-3.2-2.1-6.1-2.2-6.1l-13.6-14 3.8-3.7 13.6 14.1c0.2 0.3 4.1 4.7 3.5 10.2-0.3 3.4-2.1 6.3-5.4 8.7C77.8 120.5 74.2 121.4 71 121.4z" data-fill-palette-color="accent"></path></g></g></g><g fill="#ffffff" data-fill-palette-color="accent"><g fill="#ffffff" data-fill-palette-color="accent"><g fill="#ffffff" data-fill-palette-color="accent"><path fill="#ffffff" d="M72 109.4c-0.5 0-0.9-0.2-1.3-0.5l-12.4-13c-0.7-0.7-0.6-1.8 0.1-2.5 0.7-0.7 1.8-0.6 2.5 0.1l12.4 13c0.7 0.7 0.6 1.8-0.1 2.5C72.8 109.2 72.4 109.4 72 109.4z" data-fill-palette-color="accent"></path></g></g></g><g fill="#ffffff" data-fill-palette-color="accent"><g fill="#ffffff" data-fill-palette-color="accent"><g fill="#ffffff" data-fill-palette-color="accent"><path fill="#ffffff" d="M30.1 109.7c-0.4 0-0.9-0.2-1.2-0.5-0.7-0.7-0.7-1.8 0-2.5L67.8 67c1.8-1.6 6.5-6 7.7-7.8 1.7-2.5 1.8-6 1.8-9.4C77.2 36.1 66.1 25 52.4 25S27.6 36.1 27.6 49.8c0 5.3 1 9.2 3 12 3 4.1 14.2 14.9 14.3 15 0.7 0.7 0.7 1.8 0 2.5-0.7 0.7-1.8 0.7-2.5 0C42 78.8 31 68.2 27.8 63.9c-2.5-3.4-3.7-8-3.7-14 0-15.6 12.7-28.3 28.3-28.3s28.3 12.7 28.3 28.3c0 3.9-0.2 8-2.4 11.3-1.6 2.5-7.5 7.8-8.2 8.4l-38.8 39.6C31 109.5 30.5 109.7 30.1 109.7z" data-fill-palette-color="accent"></path></g></g></g><g fill="#ffffff" data-fill-palette-color="accent"><g fill="#ffffff" data-fill-palette-color="accent"><g fill="#ffffff" data-fill-palette-color="accent"><path fill="#ffffff" d="M30.6 121.9c-3 0-6.2-0.9-9.5-3.4-3.2-2.5-5.1-5.4-5.5-8.8-0.7-5.5 2.8-10 2.9-10.2l0.2-0.3 13.1-12.7-5-5.3c-9.5-7.7-15-19.2-15-31.5C11.9 27.5 30 9.3 52.4 9.3s40.5 18.2 40.5 40.5c0 13.6-5.3 25-14.9 32.2l-36.6 35.7C39.3 119.7 35.3 121.9 30.6 121.9zM22.6 102.9c-0.4 0.6-2.1 3.3-1.7 6.2 0.3 1.9 1.4 3.7 3.5 5.3 7 5.3 13.2-0.2 13.4-0.4l37-36c8.4-6.2 12.9-15.9 12.9-28.1 0-19.4-15.8-35.3-35.3-35.3S17.1 30.4 17.1 49.8c0 10.7 4.8 20.8 13.2 27.5l0.3 0.2 5.1 5.4 12.9-12.5-10.6-11c-1.9-2.9-3-6.2-3-9.7 0-9.5 7.8-17.3 17.3-17.3s17.3 7.8 17.3 17.3c0 3.5-1 6.8-3 9.7l-0.3 0.4-10.6 11L22.6 102.9zM42.3 56.4l10.1 10.4 10.1-10.4c1.3-1.9 1.9-4.2 1.9-6.5 0-6.6-5.4-12-12-12s-12 5.4-12 12C40.4 52.2 41 54.4 42.3 56.4z" data-fill-palette-color="accent"></path></g></g></g></g></svg></g></svg></g><g></g></svg></g><defs></defs></svg><rect width="395.52" height="216.05958184105015" fill="none" stroke="none" visibility="hidden"></rect></g></svg></g></svg>