<?xml version="1.0" encoding="UTF-8"?>
<svg version="1.1" xmlns="http://www.w3.org/2000/svg" width="1026" height="1023">
<path d="M0 0 C0.61794434 0.49322754 1.23588867 0.98645508 1.87255859 1.49462891 C26.52039106 21.22624756 26.52039106 21.22624756 36.98828125 31.984375 C38.94342337 33.94331351 40.96340182 35.75979286 43.0625 37.5625 C49.17953586 42.82994755 54.70550493 48.56034821 59.9609375 54.6796875 C62.03542101 57.04030667 64.16453354 59.33926167 66.30957031 61.63549805 C72.146574 67.88852025 77.66193577 74.31177212 83 81 C83.93255908 82.14147109 84.86621236 83.28204884 85.80078125 84.421875 C93.32374874 93.64170606 100.28532034 103.17823721 107 113 C107.51095215 113.74717285 108.0219043 114.4943457 108.54833984 115.26416016 C118.78513886 130.29675024 128.05244334 145.74811968 136.75146484 161.71582031 C137.55851101 163.19230133 138.37097611 164.66583894 139.18994141 166.13574219 C178.10417646 235.99675344 196.29630354 317.47881652 198 397 C198.04447266 398.94326172 198.04447266 398.94326172 198.08984375 400.92578125 C198.12749815 404.62009674 198.08396963 408.3069669 198 412 C197.98211426 412.90782227 197.96422852 413.81564453 197.94580078 414.75097656 C195.66597357 519.35677098 162.23446415 622.54751218 78.5546875 734.0078125 C76.10314638 736.87918941 73.73440595 739.80278357 71.375 742.75 C67.85662257 747.0788608 64.09859641 751.00840264 60.10546875 754.8984375 C58.19598238 756.80438122 56.43356497 758.75780854 54.6875 760.8125 C48.10023073 768.47211543 40.80469781 775.62309876 33.11328125 782.16796875 C30.94379896 784.04872142 28.8357322 785.98870865 26.73193359 787.94238281 C20.68484881 793.55166096 14.47073216 798.88113442 8 804 C7.35289062 804.51433594 6.70578125 805.02867187 6.0390625 805.55859375 C-58.01488706 856.35595668 -132.13493356 890.96079057 -212 908 C-212.89138672 908.19207031 -213.78277344 908.38414062 -214.70117188 908.58203125 C-235.00928628 912.89729968 -235.00928628 912.89729968 -243.140625 908.34375 C-247.25059883 905.37351681 -250.39393948 901.81818157 -252 897 C-252.09812893 894.88287461 -252.13501618 892.76274769 -252.14044189 890.64335632 C-252.14341302 889.99574162 -252.14638414 889.34812691 -252.1494453 888.68088752 C-252.15812945 886.50689049 -252.1596403 884.33294855 -252.16113281 882.15893555 C-252.16576119 880.60174441 -252.17078588 879.0445544 -252.17617798 877.48736572 C-252.18930216 873.25380488 -252.19574698 869.0202599 -252.20018864 864.78668189 C-252.20311936 862.14180586 -252.20722417 859.49693417 -252.21169281 856.85206032 C-252.22536786 848.57711866 -252.23503445 840.30218691 -252.2388947 832.02723473 C-252.24337547 822.47454688 -252.26092418 812.92200211 -252.2898953 803.36935776 C-252.31151078 795.98582214 -252.32159891 788.60232677 -252.32293582 781.21875983 C-252.32398395 776.80872938 -252.32989352 772.39883343 -252.34775543 767.98883629 C-252.3642338 763.83968448 -252.36639281 759.69076832 -252.35761642 755.54159546 C-252.35684592 754.02024009 -252.36119059 752.49887206 -252.37107468 750.9775486 C-252.38379566 748.89728401 -252.37791747 746.81785383 -252.36749268 744.7375946 C-252.36895924 743.57450114 -252.3704258 742.41140768 -252.3719368 741.21306896 C-251.77098863 736.02162802 -249.8902544 732.87047097 -246.1875 729.25 C-240.49953083 725.23496294 -236.47892503 724.77060333 -229.75411987 725.51806641 C-225.10907799 726.33088568 -220.93303984 728.06368469 -216.59765625 729.875 C-215.61807953 730.27161331 -214.63850281 730.66822662 -213.62924194 731.07685852 C-210.43538496 732.37278704 -207.24912457 733.68640072 -204.0625 735 C-201.83595689 735.90664002 -199.60881645 736.81181436 -197.38110352 737.71557617 C-193.96402205 739.10217985 -190.54739687 740.48981413 -187.13273621 741.88237 C-175.93577973 746.4479473 -164.69120506 750.88908128 -153.4375 755.3125 C-150.06055175 756.64029285 -146.68415345 757.96946218 -143.30859375 759.30078125 C-142.52704422 759.60879669 -141.74549469 759.91681213 -140.94026184 760.23416138 C-134.73240347 762.68966233 -128.5583067 765.22351448 -122.40586853 767.81477356 C-114.75487188 771.00906216 -108.25933323 772.32667756 -100.1875 769.8125 C-94.65701666 766.66771536 -92.66592148 763.00387765 -91 757 C-90.70173304 753.5440448 -90.70173304 753.5440448 -90.74552441 749.81402397 C-90.74231793 749.11002098 -90.73911145 748.406018 -90.73580781 747.68068159 C-90.7275068 745.32177701 -90.73343242 742.96312626 -90.73930359 740.60421753 C-90.73628293 738.89579766 -90.73239388 737.18737914 -90.72771102 735.47896302 C-90.71741082 730.78401008 -90.71961802 726.08913334 -90.72389162 721.3941741 C-90.72635525 716.33059963 -90.71734906 711.26704367 -90.70985413 706.20347595 C-90.69709386 696.2821054 -90.69531518 686.36076189 -90.69765439 676.43938451 C-90.69943664 668.37374193 -90.69768989 660.30810757 -90.69342995 652.24246597 C-90.69253716 650.52122002 -90.69253716 650.52122002 -90.69162634 648.76520143 C-90.6904146 646.4340844 -90.68920046 644.10296738 -90.68798397 641.77185036 C-90.67710279 619.90066534 -90.67927334 598.02949573 -90.68536881 576.15830983 C-90.69053544 556.15611249 -90.67929026 536.15396388 -90.66027059 516.15177618 C-90.64088999 495.61241828 -90.63263678 475.07308343 -90.63639385 454.53371632 C-90.63830594 443.00302027 -90.63581773 431.47236568 -90.62167931 419.94167709 C-90.60976153 410.12258738 -90.60836491 400.30356463 -90.62046947 390.48447399 C-90.62635605 385.47644317 -90.62746373 380.4685348 -90.61546707 375.46051216 C-90.60460099 370.87099645 -90.60772034 366.28170532 -90.62172876 361.69220008 C-90.62437374 360.03672611 -90.62201543 358.3812345 -90.61399289 356.72577785 C-90.50897374 333.42756005 -98.44351959 316.33762252 -114.1875 299.25 C-119.74242758 293.94195809 -126.24864513 290.5191493 -133 287 C-134.7357147 286.08470676 -136.47138919 285.16933723 -138.20703125 284.25390625 C-143.12176249 281.67211705 -148.0492669 279.11555801 -152.97998047 276.56445312 C-157.82583361 274.05416801 -162.66256968 271.52646639 -167.5 269 C-169.4166202 267.99991094 -171.33328694 266.99991107 -173.25 266 C-322.75000001 187.99999999 -322.75000001 187.99999999 -325.62402344 186.50048828 C-327.5439221 185.49881619 -329.46384404 184.49718871 -331.38378906 183.49560547 C-336.12619636 181.02155056 -340.86821884 178.54676427 -345.609375 176.0703125 C-347.48957081 175.08851769 -349.36977921 174.10674698 -351.25 173.125 C-352.1877124 172.63515625 -353.1254248 172.1453125 -354.09155273 171.640625 C-360.42169501 168.33673261 -366.7635801 165.05622976 -373.11010742 161.78393555 C-377.65670259 159.4345988 -382.19495958 157.06947266 -386.73144531 154.70068359 C-388.86543956 153.59033075 -391.00268499 152.48619792 -393.14355469 151.38916016 C-404.82595233 145.39765709 -414.9882549 139.66431975 -424 130 C-424.58265625 129.44570312 -425.1653125 128.89140625 -425.765625 128.3203125 C-429.48936648 124.5377751 -431.78290658 119.93001897 -434.1875 115.25 C-434.52104492 114.60651611 -434.85458984 113.96303223 -435.19824219 113.30004883 C-440.79203492 101.92515862 -441.44861996 90.90443237 -441.43579102 78.46240234 C-441.44478276 76.71185162 -441.45499422 74.96130681 -441.46632385 73.21076965 C-441.4926722 68.48572855 -441.49985053 63.76085072 -441.50177121 59.03574324 C-441.50391111 56.07921773 -441.51032961 53.12273311 -441.51826286 50.1662178 C-441.54595769 39.83995193 -441.5582747 29.51380179 -441.5559082 19.1875 C-441.55410362 9.57888924 -441.58581901 -0.02921751 -441.63313919 -9.63770068 C-441.67240281 -17.90638393 -441.68845853 -26.17490253 -441.68654197 -34.44367826 C-441.68577862 -39.37415879 -441.69424464 -44.30418999 -441.72607613 -49.23457718 C-441.75518658 -53.86913326 -441.75531278 -58.5028121 -441.73352623 -63.13739967 C-441.73039775 -64.83327712 -441.73742401 -66.52920991 -441.7556076 -68.22499275 C-441.91022991 -83.64885963 -441.91022991 -83.64885963 -436.64240932 -90.40372276 C-430.79293743 -96.08889435 -423.0042997 -97.12144479 -415.25 -98.5 C-414.12037842 -98.70794189 -412.99075684 -98.91588379 -411.8269043 -99.13012695 C-321.01087112 -115.48938075 -229.49686648 -108.55664932 0 0 Z " fill="#000000" transform="translate(828,108)"/>
<path d="M0 0 C5.09952998 2.19642677 8.31231857 5.39700946 10.8359375 10.3359375 C12.10514335 14.63937748 11.97325895 18.89455046 11.96063614 23.34454823 C11.96198037 24.26989843 11.96332461 25.19524864 11.96470958 26.14863977 C11.96803842 29.27251563 11.96422145 32.39634303 11.96051025 35.5202179 C11.96149597 37.77337056 11.96293266 40.02652307 11.96478343 42.27967519 C11.96784903 47.19065834 11.96772995 52.10162794 11.96522713 57.01261139 C11.96152373 64.31589373 11.96329279 71.61916633 11.96664129 78.92244781 C11.97187011 90.45670669 11.97392891 101.99096324 11.97400616 113.52522321 C11.9742572 131.84389346 11.9859344 150.16254366 12.00161674 168.48120657 C12.00494132 172.3797992 12.00816312 176.27839191 12.0113976 180.17698461 C12.01533392 184.91039056 12.01928048 189.64379651 12.02325882 194.37720243 C12.03823589 212.23299398 12.05185075 230.08878634 12.06396484 247.94458008 C12.064523 248.76066094 12.06508117 249.57674181 12.06565624 250.4175524 C12.08364457 276.86496875 12.08798097 303.31236876 12.08626582 329.75979042 C12.08459555 356.95420653 12.09952377 384.14856866 12.13419066 411.3429637 C12.13907598 415.18623999 12.14375774 419.0295165 12.1483078 422.8727932 C12.14920734 423.62916231 12.15010687 424.38553143 12.15103366 425.16482082 C12.16497943 437.32387795 12.16125835 449.48286826 12.15069588 461.64192616 C12.14040813 473.87216898 12.14812614 486.10229474 12.1741136 498.33251522 C12.18767588 504.955059 12.19262224 511.57740498 12.17599297 518.19996262 C12.16092412 524.26829807 12.16901293 530.33615502 12.1951625 536.40444877 C12.20056647 538.59434862 12.19761522 540.78428925 12.18524554 542.97416083 C12.07101129 564.80872828 17.28459543 581.43862743 31.8359375 598.3359375 C32.41730469 599.01269531 32.99867188 599.68945312 33.59765625 600.38671875 C42.75565567 610.27428626 55.63537389 615.91910357 67.35253906 622.21020508 C74.31810314 625.95245706 81.21874708 629.79147607 88.0859375 633.7109375 C96.91296865 638.73839655 105.81764728 643.60554117 114.7734375 648.3984375 C115.66887268 648.87818024 115.66887268 648.87818024 116.58239746 649.36761475 C134.15272529 659.31493603 134.15272529 659.31493603 153.8359375 661.3359375 C158.58432456 659.7248776 161.26654958 657.64883865 163.8359375 653.3359375 C166.74308983 644.38448523 166.12714613 634.71463055 166.1015625 625.421875 C166.10291324 623.68087714 166.10485717 621.93987964 166.10736084 620.19888306 C166.11029755 616.55947255 166.10606462 612.92016068 166.09667969 609.28076172 C166.08533729 604.66177102 166.09182076 600.04301418 166.10382462 595.42403221 C166.11112657 591.82905384 166.10871665 588.23412888 166.10356903 584.63914871 C166.10225277 582.93864539 166.10380756 581.2381369 166.10852814 579.53763962 C166.15741884 556.96423882 162.67178156 536.80707807 152.8359375 516.3359375 C152.28550781 515.16933594 151.73507812 514.00273438 151.16796875 512.80078125 C145.97218207 502.44361708 139.29513915 493.19318325 132.625 483.7421875 C112.44860328 455.10217258 110.76249552 431.06670679 110.1484375 397.0234375 C110.12470062 395.7233374 110.10096375 394.4232373 110.07650757 393.08374023 C109.80350901 377.14268361 109.7038537 361.25608756 110.6484375 345.3359375 C110.68941559 344.62488861 110.73039368 343.91383972 110.77261353 343.1812439 C112.25607412 318.5964764 112.25607412 318.5964764 120.6484375 309.3359375 C125.23320074 307.24004573 128.94399643 307.69446392 133.56640625 309.26171875 C142.52091616 313.27173045 149.00290011 319.48931554 155.8359375 326.3359375 C156.67382812 327.17125 157.51171875 328.0065625 158.375 328.8671875 C159.77368537 330.27067935 161.16479527 331.68182975 162.54296875 333.10546875 C164.49356988 335.00290188 166.48213934 336.78349137 168.5390625 338.5625 C184.23264577 352.20996477 200.19309114 367.22303622 204.8359375 388.3359375 C204.92318439 389.68935856 204.96329476 391.04635962 204.96473867 392.40258914 C204.96801086 393.20963154 204.97128305 394.01667393 204.97465441 394.84817216 C204.97317078 395.73088793 204.97168716 396.6136037 204.97015858 397.52306843 C204.97251081 398.46769915 204.97486304 399.41232986 204.97728655 400.38558576 C204.98398372 403.5749651 204.98351811 406.76430378 204.98310852 409.95368958 C204.98640668 412.25379218 204.99013215 414.55389421 204.99425 416.8539955 C205.00428326 423.19352286 205.00798891 429.53304075 205.01063931 435.87257493 C205.01365782 442.00146575 205.02228506 448.13035008 205.03018325 454.25923614 C205.05102984 470.68134304 205.06149721 487.10345175 205.07031285 503.5255688 C205.07451847 511.29223959 205.07974053 519.0589096 205.08499738 526.82557974 C205.10288647 553.40514298 205.11788367 579.98470643 205.12531757 606.56427479 C205.12579233 608.23298758 205.12626822 609.90170037 205.12674524 611.57041315 C205.12698161 612.39795222 205.12721799 613.22549128 205.12746153 614.07810729 C205.12866274 618.27090291 205.12987818 622.46369853 205.13110352 626.65649414 C205.13134367 627.4885695 205.13158382 628.32064487 205.13183124 629.17793464 C205.13972722 656.16630468 205.16316576 683.15463081 205.19565946 710.14298167 C205.22994132 738.66852616 205.24966711 767.19404496 205.25296181 795.71961039 C205.25337936 798.8497373 205.25385893 801.97986419 205.25438499 805.10999107 C205.25450819 805.88073108 205.25463138 806.65147108 205.2547583 807.44556685 C205.2570922 819.85911955 205.27276251 832.27262133 205.29322684 844.68615587 C205.31346181 857.1581946 205.31897317 869.63017204 205.30945621 882.10222415 C205.30469289 888.86149897 205.30689193 895.62059813 205.32621765 902.37985229 C205.34374591 908.56365059 205.34293592 914.74716102 205.32732036 920.93096193 C205.32492854 923.17187076 205.32934859 925.412799 205.34114901 927.65367804 C205.35616792 930.69323295 205.34666432 933.73175463 205.33092213 936.77128315 C205.34114433 937.64697542 205.35136654 938.52266769 205.36189851 939.42489609 C205.29615721 945.21694238 204.16478937 948.56651395 200.8359375 953.3359375 C194.50244459 959.2060041 188.12417339 958.67415248 179.94818115 958.44006348 C173.80035571 958.13699791 167.72261627 957.15962506 161.6484375 956.2109375 C160.91604858 956.09956451 160.18365967 955.98819153 159.42907715 955.8734436 C73.50624419 942.77358478 -7.28970226 908.36858967 -92.1640625 842.3359375 C-93.05834961 841.59029541 -93.05834961 841.59029541 -93.97070312 840.82958984 C-106.94618967 829.97495873 -119.1803484 818.3959326 -131.1640625 806.4609375 C-131.95321045 805.6764624 -132.7423584 804.8919873 -133.55541992 804.08374023 C-138.29765638 799.32839392 -142.79092219 794.43047482 -147.1640625 789.3359375 C-148.18564283 788.17934655 -149.20903549 787.02435343 -150.234375 785.87109375 C-157.75626306 777.34693757 -164.77516983 768.53223976 -171.58642578 759.43261719 C-173.1067605 757.41209188 -174.64558523 755.40731606 -176.19140625 753.40625 C-187.65049434 738.4940466 -197.7589667 722.61301201 -207.1640625 706.3359375 C-207.7209375 705.3766333 -207.7209375 705.3766333 -208.2890625 704.39794922 C-253.00839861 626.91339008 -276.46881362 538.51814298 -276.3515625 449.0859375 C-276.35095825 448.22154053 -276.350354 447.35714355 -276.34973145 446.46655273 C-276.19890347 366.18928394 -257.06360731 288.05314481 -221.1640625 216.3359375 C-220.68888184 215.37768066 -220.21370117 214.41942383 -219.72412109 213.43212891 C-202.87040952 179.59172622 -181.46948173 148.25315422 -157.1640625 119.3359375 C-156.73335449 118.8203125 -156.30264648 118.3046875 -155.85888672 117.7734375 C-144.91800384 104.701414 -133.24970618 92.35212755 -121.2265625 80.2734375 C-120.54118408 79.58338623 -119.85580566 78.89333496 -119.1496582 78.18237305 C-114.65025669 73.69716006 -109.98011125 69.47687888 -105.1640625 65.3359375 C-103.97283624 64.29033949 -102.78270205 63.24349579 -101.59375 62.1953125 C-79.64976677 42.95612386 -56.08902922 25.97619828 -31.3515625 10.5234375 C-30.49191895 9.98388428 -29.63227539 9.44433105 -28.74658203 8.88842773 C-9.61917792 -2.9517333 -9.61917792 -2.9517333 0 0 Z " fill="#000000" transform="translate(276.1640625,64.6640625)"/>
<path d="M0 0 C7.07464063 6.24232997 10.34843054 13.03131269 11.29370117 22.3894043 C11.37333949 23.1508182 11.45297781 23.91223211 11.53502941 24.69671917 C12.65185317 36.91281336 12.43555969 49.21494866 12.42658257 61.47088456 C12.42549724 64.41493076 12.43043539 67.35895613 12.435188 70.30299777 C12.4462051 77.26361984 12.44676501 84.22418792 12.44067383 91.18481445 C12.4346409 98.3012199 12.44694582 105.41742729 12.4682439 112.53379899 C12.48601119 118.70345378 12.49183773 124.8730464 12.48860615 131.04272574 C12.48681701 134.70127154 12.48918616 138.35967604 12.50332069 142.01819801 C12.61449081 173.51253454 11.37750407 207.8220655 -11.875 231.875 C-16.8892908 236.34915176 -21.5001462 239.56819511 -28.3125 240.1875 C-33.08081591 239.76922667 -36.07376179 238.70699106 -39.4765625 235.24609375 C-46.4566806 226.73585124 -47.33929986 217.05542241 -47.52734375 206.37109375 C-47.55964584 205.09954941 -47.59194794 203.82800507 -47.62522888 202.51792908 C-47.73516745 197.97065992 -47.80739334 193.42307052 -47.875 188.875 C-47.8884269 187.99103798 -47.90185379 187.10707596 -47.91568756 186.19632721 C-48.13406528 171.55333905 -48.27709356 156.90980395 -48.40722656 142.26580811 C-48.44751219 137.83674401 -48.49156669 133.4077208 -48.5356369 128.97869301 C-48.66830886 115.61092619 -48.78160421 102.24309823 -48.875 88.875 C-48.88118347 88.02392418 -48.88736694 87.17284836 -48.89373779 86.29598236 C-48.92593306 81.78748896 -48.95193003 77.27906461 -48.96571159 72.77047539 C-48.97235677 70.89319683 -48.98417195 69.01593872 -48.99623108 67.13868713 C-49.02286931 44.81190115 -41.56675026 23.27118156 -25.99609375 6.8203125 C-18.39868869 -0.14747336 -10.14230874 -3.96872951 0 0 Z " fill="#000000" transform="translate(627.875,476.125)"/>
</svg>
