<svg xmlns="http://www.w3.org/2000/svg" xmlns:xlink="http://www.w3.org/1999/xlink" version="1.1" x="0" y="0" viewBox="11.799999999999997 9.3 81.10000000000001 112.60000000000001" enable-background="new 0 0 108.3 129.2" xml:space="preserve" height="113.6891161200637" width="81.88443443461072" class="icon-icon-0" data-fill-palette-color="accent" id="icon-0">
  <g fill="#ffffff" data-fill-palette-color="accent">
    <g fill="#ffffff" data-fill-palette-color="accent">
      <g fill="#ffffff" data-fill-palette-color="accent">
        <g fill="#ffffff" data-fill-palette-color="accent">
          <path fill="#ffffff" d="M71 121.4c-4 0-7.2-1.5-8.9-2.9l-0.3-0.3L50.2 106l3.8-3.6 11.4 12.1c0.9 0.6 6.3 4 12.9-1 2-1.5 3.1-3.2 3.3-5 0.3-3.2-2.1-6.1-2.2-6.1l-13.6-14 3.8-3.7 13.6 14.1c0.2 0.3 4.1 4.7 3.5 10.2-0.3 3.4-2.1 6.3-5.4 8.7C77.8 120.5 74.2 121.4 71 121.4z" data-fill-palette-color="accent"></path>
        </g>
      </g>
    </g>
    <g fill="#ffffff" data-fill-palette-color="accent">
      <g fill="#ffffff" data-fill-palette-color="accent">
        <g fill="#ffffff" data-fill-palette-color="accent">
          <path fill="#ffffff" d="M72 109.4c-0.5 0-0.9-0.2-1.3-0.5l-12.4-13c-0.7-0.7-0.6-1.8 0.1-2.5 0.7-0.7 1.8-0.6 2.5 0.1l12.4 13c0.7 0.7 0.6 1.8-0.1 2.5C72.8 109.2 72.4 109.4 72 109.4z" data-fill-palette-color="accent"></path>
        </g>
      </g>
    </g>
    <g fill="#ffffff" data-fill-palette-color="accent">
      <g fill="#ffffff" data-fill-palette-color="accent">
        <g fill="#ffffff" data-fill-palette-color="accent">
          <path fill="#ffffff" d="M30.1 109.7c-0.4 0-0.9-0.2-1.2-0.5-0.7-0.7-0.7-1.8 0-2.5L67.8 67c1.8-1.6 6.5-6 7.7-7.8 1.7-2.5 1.8-6 1.8-9.4C77.2 36.1 66.1 25 52.4 25S27.6 36.1 27.6 49.8c0 5.3 1 9.2 3 12 3 4.1 14.2 14.9 14.3 15 0.7 0.7 0.7 1.8 0 2.5-0.7 0.7-1.8 0.7-2.5 0C42 78.8 31 68.2 27.8 63.9c-2.5-3.4-3.7-8-3.7-14 0-15.6 12.7-28.3 28.3-28.3s28.3 12.7 28.3 28.3c0 3.9-0.2 8-2.4 11.3-1.6 2.5-7.5 7.8-8.2 8.4l-38.8 39.6C31 109.5 30.5 109.7 30.1 109.7z" data-fill-palette-color="accent"></path>
        </g>
      </g>
    </g>
    <g fill="#ffffff" data-fill-palette-color="accent">
      <g fill="#ffffff" data-fill-palette-color="accent">
        <g fill="#ffffff" data-fill-palette-color="accent">
          <path fill="#ffffff" d="M30.6 121.9c-3 0-6.2-0.9-9.5-3.4-3.2-2.5-5.1-5.4-5.5-8.8-0.7-5.5 2.8-10 2.9-10.2l0.2-0.3 13.1-12.7-5-5.3c-9.5-7.7-15-19.2-15-31.5C11.9 27.5 30 9.3 52.4 9.3s40.5 18.2 40.5 40.5c0 13.6-5.3 25-14.9 32.2l-36.6 35.7C39.3 119.7 35.3 121.9 30.6 121.9zM22.6 102.9c-0.4 0.6-2.1 3.3-1.7 6.2 0.3 1.9 1.4 3.7 3.5 5.3 7 5.3 13.2-0.2 13.4-0.4l37-36c8.4-6.2 12.9-15.9 12.9-28.1 0-19.4-15.8-35.3-35.3-35.3S17.1 30.4 17.1 49.8c0 10.7 4.8 20.8 13.2 27.5l0.3 0.2 5.1 5.4 12.9-12.5-10.6-11c-1.9-2.9-3-6.2-3-9.7 0-9.5 7.8-17.3 17.3-17.3s17.3 7.8 17.3 17.3c0 3.5-1 6.8-3 9.7l-0.3 0.4-10.6 11L22.6 102.9zM42.3 56.4l10.1 10.4 10.1-10.4c1.3-1.9 1.9-4.2 1.9-6.5 0-6.6-5.4-12-12-12s-12 5.4-12 12C40.4 52.2 41 54.4 42.3 56.4z" data-fill-palette-color="accent"></path>
        </g>
      </g>
    </g>
  </g>
</svg>